<?xml version="1.0" standalone="no"?>
<!DOCTYPE svg PUBLIC "-//W3C//DTD SVG 20010904//EN"
 "http://www.w3.org/TR/2001/REC-SVG-20010904/DTD/svg10.dtd">
<svg version="1.0" xmlns="http://www.w3.org/2000/svg"
 width="260.000000pt" height="260.000000pt" viewBox="0 0 260.000000 260.000000"
 preserveAspectRatio="xMidYMid meet">
<metadata>
Created by potrace 1.11, written by Peter Selinger 2001-2013
</metadata>
<g transform="translate(0.000000,260.000000) scale(0.100000,-0.100000)"
fill="#000000" stroke="none">
<path d="M0 1300 l0 -1300 35 0 c24 0 39 6 47 20 7 11 17 20 22 20 5 0 17 7
26 15 34 31 115 52 191 51 41 -1 80 -5 88 -10 8 -5 16 -4 21 4 5 9 48 12 156
11 82 0 168 -1 192 -1 23 0 42 -4 42 -8 0 -5 28 -9 61 -9 40 0 64 -5 70 -14 6
-9 9 -10 9 -2 0 8 9 9 32 2 18 -5 52 -9 75 -9 23 0 44 -4 48 -10 3 -5 25 -9
48 -10 333 -3 326 -3 323 23 -3 31 -14 47 -32 47 -8 0 -39 11 -67 24 -65 29
-117 46 -145 46 -21 0 -49 10 -92 35 -18 10 -28 11 -38 3 -10 -9 -16 -8 -22 2
-5 8 -6 19 -2 25 6 10 7 16 10 72 1 17 9 39 18 47 8 9 12 20 9 26 -3 5 -1 10
4 10 6 0 17 16 25 35 8 19 21 35 28 35 7 0 14 14 15 32 3 43 19 57 37 33 13
-18 14 -18 26 5 16 30 -1 142 -46 303 -7 24 8 21 39 -7 15 -14 44 -37 64 -53
21 -15 44 -34 51 -40 29 -28 119 -81 156 -93 39 -13 172 -9 258 6 l37 6 -14
-53 c-18 -68 -18 -74 -1 -60 12 10 15 6 21 -18 3 -17 3 -35 0 -42 -4 -6 2 -17
14 -25 12 -9 19 -19 16 -24 -3 -5 0 -12 6 -15 5 -4 8 -13 5 -21 -8 -20 3 -44
20 -44 7 0 11 -6 8 -14 -10 -25 47 -13 79 17 34 32 42 33 44 10 1 -10 6 -50
11 -89 5 -39 7 -94 5 -121 -6 -54 8 -93 32 -93 8 0 15 -4 15 -8 0 -5 20 -19
45 -31 25 -12 45 -26 45 -31 0 -4 97 -9 215 -9 l215 -2 0 1301 0 1300 -1300 0
-1300 0 0 -1300z m1198 1265 c-3 -3 -9 2 -12 12 -6 14 -5 15 5 6 7 -7 10 -15
7 -18z m9 -14 c9 9 14 5 19 -17 4 -16 12 -32 17 -36 6 -3 10 -30 9 -58 -1 -60
5 -63 11 -5 4 35 8 40 28 38 21 -2 22 -1 7 8 -10 5 -23 20 -29 32 l-12 22 24
-21 c31 -27 69 -47 77 -40 3 3 13 -1 22 -9 24 -22 57 -26 64 -9 9 23 34 16 58
-16 27 -38 47 -40 23 -2 l-18 27 22 -19 c12 -11 20 -25 17 -32 -3 -7 25 -35
63 -63 109 -81 187 -177 153 -189 -24 -8 -64 -46 -73 -69 -5 -13 -13 -21 -19
-18 -5 3 -10 1 -10 -5 0 -15 -26 -41 -34 -33 -3 4 -6 2 -6 -4 0 -6 -9 -13 -20
-16 -23 -6 -23 -25 0 -45 11 -10 11 -12 1 -6 -11 6 -13 1 -8 -24 6 -29 4 -32
-28 -38 -46 -8 -36 -31 11 -26 32 4 35 2 30 -14 -3 -11 -6 -42 -7 -71 -1 -29
-6 -58 -10 -65 -5 -7 -2 -20 7 -29 9 -10 16 -39 17 -70 2 -31 7 -54 15 -57 6
-2 12 -14 12 -27 0 -13 5 -27 10 -30 6 -3 7 -17 4 -30 -3 -13 0 -33 6 -45 24
-44 21 -83 -7 -112 l-27 -28 38 0 c30 0 37 -3 34 -17 -2 -10 7 -26 19 -36 37
-30 30 -69 -16 -99 -35 -23 -45 -25 -79 -17 -35 7 -47 5 -94 -20 -30 -16 -73
-34 -96 -40 -24 -7 -46 -21 -53 -32 -14 -27 -6 -34 15 -14 17 17 36 11 83 -25
13 -10 44 -21 69 -25 67 -10 77 -15 63 -31 -9 -11 -5 -16 16 -26 20 -9 39 -9
82 0 63 13 73 10 66 -18 -3 -12 0 -20 7 -20 7 0 9 -8 4 -22 -4 -13 -7 -31 -6
-40 0 -10 -3 -18 -9 -18 -5 0 -9 -4 -9 -10 0 -5 7 -7 16 -3 12 4 15 2 12 -8
-3 -8 -13 -14 -24 -14 -14 0 -18 -7 -17 -23 4 -30 -5 -28 -17 4 -6 16 -16 24
-24 21 -7 -3 -19 0 -25 6 -9 9 -11 8 -5 -6 4 -10 13 -16 21 -13 11 4 11 1 3
-15 -13 -24 -52 -41 -61 -27 -10 15 -48 -13 -42 -30 5 -12 1 -12 -24 1 -16 9
-37 15 -47 14 -11 -1 -21 4 -23 10 -3 9 4 11 25 7 16 -3 32 -2 35 3 5 9 -57
10 -78 2 -5 -2 -30 12 -54 31 -23 19 -47 36 -52 36 -5 1 -15 2 -22 3 -16 1
-138 117 -131 124 3 3 -6 7 -20 11 -25 6 -106 108 -144 181 -38 75 -87 219
-70 209 5 -4 5 3 -1 15 -6 12 -15 30 -21 41 -6 13 -6 21 1 25 7 5 7 11 0 19
-5 6 -13 27 -16 45 -3 18 -15 50 -25 72 -18 35 -27 74 -29 122 -1 9 -8 17 -16
17 -8 0 -15 2 -15 4 0 2 -3 13 -6 23 -5 16 -4 16 11 -2 17 -20 17 -20 10 5 -5
14 -15 30 -24 37 -14 10 -14 12 3 19 20 8 36 -9 36 -39 0 -32 28 -74 57 -85
115 -46 295 -39 443 17 64 24 63 24 55 11 -3 -5 -4 -10 -1 -10 7 0 36 57 43
83 3 12 5 44 4 70 0 32 4 50 14 53 16 7 9 34 -10 34 -6 0 -20 9 -31 21 -10 12
-32 28 -49 37 -24 13 -26 17 -12 20 11 2 17 13 17 33 0 19 -6 32 -17 35 -10 3
-27 9 -38 14 -33 12 -167 43 -202 46 -18 1 -38 6 -45 10 -7 4 -30 10 -50 11
-36 4 -38 3 -38 -26 0 -30 -29 -58 -45 -43 -5 4 -5 2 -2 -4 4 -7 -3 -14 -16
-17 -12 -2 -31 -8 -42 -13 -19 -7 -19 -7 -2 10 18 19 22 36 9 36 -5 0 -9 14
-9 31 0 17 -6 35 -14 39 -7 5 -10 12 -7 16 4 3 1 13 -7 21 -10 10 -13 23 -8
41 4 15 6 36 5 47 -2 11 -3 32 -4 47 0 15 -5 25 -9 22 -5 -3 -6 2 -3 10 3 9
10 16 15 16 5 0 14 10 20 23 8 20 9 19 5 -8 -3 -16 -7 -39 -11 -50 -3 -11 3
-3 13 17 11 21 23 56 27 78 8 50 23 53 17 4 l-5 -37 26 19 c27 20 34 34 17 34
-5 0 -10 7 -10 16 0 14 1 14 16 0 8 -9 20 -14 25 -10 5 3 -1 14 -13 25 -15 12
-19 21 -12 26 5 5 20 25 33 46 12 20 24 37 26 37 8 0 45 -73 45 -88 0 -11 3
-13 11 -5 8 8 8 17 -1 33 -10 18 -9 25 3 38 14 13 17 9 33 -44 12 -44 15 -80
11 -148 -4 -63 -3 -79 3 -51 15 69 12 212 -6 248 -15 32 -15 32 3 9 14 -17 21
-20 30 -11z m118 -31 c-3 -4 5 -10 17 -13 12 -4 19 -9 16 -12 -10 -10 -48 14
-48 31 0 8 5 12 10 9 6 -4 8 -10 5 -15z m103 -23 c12 -13 20 -26 16 -29 -6 -6
-54 35 -54 46 0 13 17 5 38 -17z m412 -457 c0 -5 -5 -10 -11 -10 -5 0 -7 5 -4
10 3 6 8 10 11 10 2 0 4 -4 4 -10z m-67 -55 c-3 -9 -8 -14 -10 -11 -3 3 -2 9
2 15 9 16 15 13 8 -4z m90 -31 l18 -25 -40 3 c-23 2 -41 4 -41 5 0 6 35 43 40
43 3 0 13 -12 23 -26z m-860 0 c-18 -8 -33 -17 -33 -20 0 -3 4 -3 9 0 15 10
43 -6 37 -20 -3 -8 1 -14 9 -14 9 0 15 -10 15 -26 0 -22 -3 -25 -22 -20 -13 3
-34 6 -47 6 -24 0 -24 0 -6 21 19 20 19 20 -9 10 -43 -17 -48 -14 -41 22 8 35
21 48 42 40 7 -3 13 0 13 6 0 6 15 11 33 10 l32 -1 -32 -14z m725 -34 c-7 -11
-18 -20 -25 -20 -17 0 -16 5 3 24 22 23 37 20 22 -4z m-251 -53 c-2 -6 -9 -13
-17 -15 -7 -3 -10 0 -6 6 3 6 2 23 -4 39 l-10 28 20 -24 c11 -13 19 -29 17
-34z m393 34 c0 -5 -9 -11 -20 -14 -22 -6 -29 18 -7 26 14 5 27 -1 27 -12z
m-697 -60 l22 -24 -30 7 c-16 4 -36 14 -44 21 -13 13 -12 17 5 36 18 20 19 20
22 3 2 -11 14 -30 25 -43z m1092 19 c3 -5 1 -10 -4 -10 -6 0 -11 5 -11 10 0 6
2 10 4 10 3 0 8 -4 11 -10z m-1335 -15 c-7 -9 -15 -13 -19 -10 -3 3 1 10 9 15
21 14 24 12 10 -5z m360 11 c0 -2 -8 -10 -17 -17 -16 -13 -17 -12 -4 4 13 16
21 21 21 13z m-385 -46 c0 -10 -11 -16 -30 -17 -16 -1 -22 1 -12 4 11 3 16 11
13 20 -4 10 0 13 12 11 9 -2 17 -10 17 -18z m174 -3 c23 6 71 -29 71 -52 0 -9
20 -11 71 -7 75 5 91 -2 82 -39 -4 -16 -8 -17 -20 -8 -11 10 -19 8 -36 -11
-21 -21 -21 -22 -2 -15 29 10 115 17 91 7 -14 -6 -16 -11 -8 -16 7 -4 17 -4
24 0 6 4 8 3 4 -4 -13 -21 -155 -45 -235 -39 -131 10 -154 26 -167 116 -2 20
-7 46 -9 58 -5 20 -1 22 42 25 29 2 52 -2 59 -9 6 -7 21 -9 33 -6z m-162 -59
c-3 -7 -5 -2 -5 12 0 14 2 19 5 13 2 -7 2 -19 0 -25z m541 -7 c-2 -9 -12 -15
-22 -14 -13 1 -16 -4 -13 -18 3 -10 1 -19 -4 -19 -5 0 -9 14 -9 30 0 17 5 30
11 30 5 0 8 4 5 9 -4 5 3 7 14 4 13 -3 20 -12 18 -22z m-702 -45 c-6 -25 -32
-30 -40 -9 -3 8 4 28 17 45 21 28 22 29 25 8 2 -12 1 -32 -2 -44z m-51 34 c3
-5 1 -10 -4 -10 -6 0 -11 5 -11 10 0 6 2 10 4 10 3 0 8 -4 11 -10z m234 -45
c0 -5 -4 -3 -9 5 -5 8 -9 22 -9 30 0 16 17 -16 18 -35z m-155 -69 c5 -32 18
-57 47 -90 23 -25 46 -46 52 -46 6 0 -2 13 -18 30 -30 31 -29 48 2 32 27 -15
69 -100 56 -113 -38 -38 -163 131 -163 218 0 39 17 17 24 -31z m46 -12 c0 -8
-4 -14 -10 -14 -5 0 -10 9 -10 21 0 11 5 17 10 14 6 -3 10 -13 10 -21z m1140
-485 c0 -5 -4 -9 -10 -9 -5 0 -10 7 -10 16 0 8 5 12 10 9 6 -3 10 -10 10 -16z"/>
<path d="M1065 2470 c-3 -5 -1 -10 4 -10 6 0 11 5 11 10 0 6 -2 10 -4 10 -3 0
-8 -4 -11 -10z"/>
<path d="M950 2329 c0 -5 5 -7 10 -4 6 3 10 8 10 11 0 2 -4 4 -10 4 -5 0 -10
-5 -10 -11z"/>
<path d="M900 2286 c0 -9 30 -14 35 -6 4 6 -3 10 -14 10 -12 0 -21 -2 -21 -4z"/>
<path d="M905 2190 c-3 -5 -1 -10 4 -10 6 0 11 5 11 10 0 6 -2 10 -4 10 -3 0
-8 -4 -11 -10z"/>
<path d="M1464 1562 c-6 -4 -14 -36 -18 -72 -6 -60 -5 -63 9 -40 9 16 12 37 8
59 -4 26 -2 37 12 48 19 13 9 19 -11 5z"/>
<path d="M1487 1354 c-9 -10 2 -24 19 -24 8 0 14 7 14 15 0 15 -21 21 -33 9z"/>
<path d="M1540 1220 c0 -5 5 -10 10 -10 6 0 10 5 10 10 0 6 -4 10 -10 10 -5 0
-10 -4 -10 -10z"/>
<path d="M1080 1780 c0 -5 5 -10 11 -10 5 0 7 5 4 10 -3 6 -8 10 -11 10 -2 0
-4 -4 -4 -10z"/>
<path d="M1108 1753 c7 -3 16 -2 19 1 4 3 -2 6 -13 5 -11 0 -14 -3 -6 -6z"/>
<path d="M1207 303 c-12 -11 -8 -23 8 -23 8 0 15 7 15 15 0 16 -12 20 -23 8z"/>
<path d="M1576 136 c3 -11 12 -32 20 -46 7 -14 21 -40 30 -57 l18 -33 94 0 94
0 -38 48 c-61 75 -97 96 -177 105 -45 4 -47 3 -41 -17z"/>
</g>
</svg>
